<?xml version="1.0" standalone="no"?>
<!DOCTYPE svg PUBLIC "-//W3C//DTD SVG 20010904//EN"
 "http://www.w3.org/TR/2001/REC-SVG-20010904/DTD/svg10.dtd">

<svg version="1.0" xmlns="http://www.w3.org/2000/svg"
 width="1000.000000pt" height="1000.000000pt" viewBox="0 0 1000.000000 1000.000000"
 preserveAspectRatio="xMidYMid meet">

	<linearGradient id="_gradi">
		<stop offset="0%"   stop-color="#eeeeee" className="stop-1" />
		<stop offset="50%"  stop-color="#eeeeee" className="stop-2" />
		<stop offset="100%" stop-color="#eeeeee" className="stop-3" />
	</linearGradient>

	<g transform="translate(0.000000,1000.000000) scale(0.100000,-0.100000)"
	fill="current" stroke="none">
		<path d="M3840 8810 c-641 -181 -1179 -329 -1196 -330 -18 0 -41 -8 -52 -17
-19 -16 -78 -396 -617 -3992 -536 -3578 -594 -3976 -581 -3996 8 -12 29 -25
47 -29 53 -10 7125 -7 7153 4 14 5 28 20 32 34 3 14 -252 1761 -580 3963 -323
2166 -589 3956 -591 3977 -7 52 -16 61 -73 75 -26 7 -562 152 -1192 323 -630
171 -1154 312 -1165 314 -11 1 -544 -145 -1185 -326z m2328 -137 c965 -262
1136 -311 1143 -328 4 -11 265 -1748 579 -3860 314 -2112 573 -3852 576 -3868
l6 -27 -3461 0 c-3289 0 -3461 1 -3461 18 0 32 1153 7717 1159 7724 8 9 2270
645 2300 647 14 0 535 -137 1159 -306z"/>
		<path d="M5650 7765 c-85 -13 -213 -40 -285 -60 -92 -25 -216 -47 -424 -75
-272 -37 -313 -40 -524 -40 -220 0 -237 1 -411 35 -101 19 -224 50 -278 70
-54 19 -98 31 -98 26 0 -5 18 -44 41 -86 36 -66 55 -87 145 -161 94 -78 112
-88 206 -120 l102 -34 262 0 262 0 6 -52 c14 -127 38 -520 31 -526 -3 -4 -183
-8 -398 -10 -358 -3 -400 -1 -487 17 -52 11 -96 19 -97 18 -1 -1 8 -23 19 -49
19 -44 28 -51 171 -134 191 -110 272 -132 532 -143 206 -10 220 -14 235 -85
10 -47 33 -526 26 -533 -9 -9 -331 -43 -511 -54 -178 -11 -214 -10 -325 5 -69
9 -177 30 -241 46 -137 35 -292 55 -353 46 l-44 -7 22 -47 c12 -26 26 -57 32
-69 5 -12 53 -69 108 -128 87 -93 109 -111 185 -149 63 -32 112 -48 183 -61
91 -16 104 -16 230 0 98 12 180 31 312 72 337 103 648 128 1216 97 434 -24
882 -23 1009 3 76 16 98 24 113 44 17 23 18 27 2 74 -10 30 -38 75 -69 110
-45 52 -65 65 -141 97 -88 37 -91 38 -259 44 -138 5 -205 2 -355 -15 -163 -19
-509 -40 -657 -41 -45 0 -54 3 -71 28 l-20 28 59 213 c91 329 101 339 339 340
75 1 189 8 255 16 113 14 121 16 151 47 30 31 32 36 27 90 l-5 57 -72 49 c-67
47 -77 51 -183 67 -105 16 -116 16 -190 0 -64 -14 -89 -15 -138 -6 -84 16
-109 43 -140 156 -23 82 -75 314 -75 333 0 19 103 41 220 47 194 10 495 59
593 98 76 30 83 35 114 87 44 73 44 116 1 175 -55 74 -132 85 -358 50z"/>
		<path d="M6145 5083 c-16 -3 -100 -37 -185 -75 -181 -82 -293 -111 -607 -158
-224 -33 -285 -46 -324 -69 l-26 -16 24 -38 c33 -52 183 -127 254 -127 27 0
70 -5 98 -11 43 -9 51 -14 56 -40 5 -21 1 -40 -14 -65 -44 -75 -173 -224 -270
-314 -167 -154 -297 -310 -343 -408 -52 -114 -48 -189 11 -239 44 -37 96 -39
171 -5 52 23 94 57 207 164 145 138 177 158 252 158 17 0 53 -13 79 -30 44
-27 58 -30 127 -30 76 0 85 3 339 106 434 177 466 187 533 163 23 -7 35 -21
47 -54 23 -58 14 -96 -37 -169 -38 -53 -54 -65 -162 -122 -96 -51 -182 -84
-435 -168 -173 -57 -385 -121 -470 -142 -187 -45 -240 -66 -240 -93 0 -14 12
-24 43 -35 91 -32 146 -46 235 -59 86 -13 101 -12 230 9 82 14 206 46 311 79
100 31 193 55 217 55 27 0 65 -10 98 -27 52 -25 57 -31 90 -104 20 -43 36 -81
36 -83 0 -16 -95 -48 -240 -80 -218 -48 -718 -101 -1190 -126 -454 -25 -526
-25 -673 1 -210 35 -239 14 -161 -122 34 -59 62 -91 121 -140 101 -82 140
-100 232 -106 89 -6 215 16 483 83 173 43 439 88 823 138 149 20 244 26 440
28 l250 3 27 -255 c15 -140 32 -343 38 -450 13 -240 9 -258 -76 -290 -64 -23
-294 -40 -566 -40 -109 0 -178 -4 -178 -10 0 -13 37 -36 87 -54 23 -8 101 -55
175 -104 137 -92 184 -136 417 -390 87 -93 119 -121 193 -163 82 -47 93 -51
133 -44 36 5 52 15 83 50 66 75 87 173 113 525 20 269 21 318 10 558 -8 187
-20 327 -43 492 -17 127 -29 232 -27 234 3 3 209 -8 459 -24 250 -17 458 -30
463 -30 20 0 -61 126 -137 211 l-85 97 -68 13 c-46 9 -146 12 -313 11 -135 -1
-294 2 -354 6 l-109 7 -21 80 -22 80 -63 43 c-43 29 -73 42 -97 42 -30 0 -34
3 -34 25 0 19 32 60 118 153 64 70 125 136 134 147 9 11 26 62 37 114 l21 93
-22 62 c-21 59 -25 65 -102 115 -69 46 -95 57 -184 77 -125 29 -255 31 -387 8
-71 -12 -117 -29 -220 -79 -284 -139 -429 -176 -474 -119 l-20 25 36 82 c47
108 52 131 59 272 7 119 7 121 43 165 19 25 39 48 44 51 23 17 281 60 412 69
171 12 287 32 363 63 42 17 59 30 82 69 17 27 30 53 30 58 0 53 -163 204 -239
221 -37 9 -113 9 -166 2z"/>
		<path d="M3553 4808 c-32 -7 -47 -17 -64 -44 -20 -33 -21 -39 -9 -97 11 -56
21 -74 104 -177 51 -63 114 -139 139 -169 66 -77 111 -213 108 -325 -2 -61 -8
-90 -28 -130 -25 -51 -37 -64 -103 -111 -48 -33 -181 -61 -219 -45 l-28 11 -6
172 c-4 95 -11 187 -16 205 -6 18 -32 63 -60 100 -47 63 -54 69 -133 100 -100
38 -194 44 -221 14 -22 -24 -22 -27 12 -70 50 -64 115 -374 126 -601 l6 -134
-53 6 c-98 11 -325 20 -351 13 -42 -10 -41 -51 2 -112 30 -43 50 -59 120 -93
74 -37 95 -43 185 -51 87 -7 117 -5 216 14 126 24 86 4 424 221 l59 38 -7 -79
c-4 -44 -16 -110 -27 -149 -18 -62 -26 -76 -79 -125 -55 -51 -78 -63 -277
-145 -202 -83 -225 -90 -327 -102 -104 -12 -114 -11 -215 12 -58 14 -180 40
-271 59 l-164 35 -23 -21 c-45 -42 -28 -116 50 -220 66 -87 166 -164 238 -183
64 -17 74 -26 89 -79 15 -54 6 -88 -50 -191 -111 -203 -149 -349 -127 -479 10
-63 14 -70 42 -81 22 -10 45 -10 87 -3 53 9 60 14 118 79 56 62 66 82 110 202
43 120 49 147 64 297 10 91 24 186 32 212 25 76 75 111 285 202 101 43 227
100 279 127 52 26 95 47 96 46 1 -1 -4 -123 -12 -272 -13 -247 -56 -670 -88
-871 -15 -96 -43 -144 -84 -144 -15 0 -91 36 -169 79 -101 56 -157 81 -193 86
l-50 7 0 -29 c0 -28 50 -112 283 -479 49 -77 95 -136 126 -162 67 -57 90 -65
138 -46 33 13 46 30 95 116 55 95 59 110 102 302 31 140 46 236 51 316 23 428
89 1354 106 1495 11 94 42 304 69 467 56 333 61 419 33 608 -16 108 -19 119
-60 177 -37 52 -57 69 -126 106 -75 40 -267 108 -299 106 -7 -1 -32 -5 -55
-11z"/>
		<path d="M5485 2623 c-47 -7 -65 -30 -65 -82 0 -25 5 -66 11 -91 6 -25 8 -72
4 -105 -7 -60 -7 -60 -68 -105 -51 -36 -103 -58 -285 -121 -123 -42 -226 -80
-230 -83 -3 -4 1 -13 9 -22 10 -9 61 -20 148 -31 123 -15 141 -15 284 1 116
13 188 28 302 62 l150 46 68 66 67 66 0 79 0 78 -52 69 c-48 63 -63 74 -160
125 -103 53 -118 57 -183 48z"/>
	</g>
</svg>
